<svg xmlns="http://www.w3.org/2000/svg" viewBox="0 0 592.3 686.04"><defs><style>.cls-1{fill:#e58edf;}.cls-2{fill:#ebebeb;}.cls-3{fill:#ba68c8;}.cls-4{fill:#455a64;}.cls-5{fill:#e0e0e0;}.cls-6{fill:#37474f;}.cls-7{fill:#263238;}.cls-13,.cls-8{fill:#fff;}.cls-9{opacity:0.2;}.cls-10,.cls-11,.cls-12,.cls-13,.cls-17,.cls-19,.cls-9{isolation:isolate;}.cls-10,.cls-13{opacity:0.3;}.cls-11{opacity:0.5;}.cls-12{opacity:0.6;}.cls-14{fill:#fafafa;}.cls-15,.cls-19{opacity:0.1;}.cls-16{fill:#f28f8f;}.cls-17{opacity:0.4;}.cls-18{fill:#ffa8a7;}</style></defs><title>covermbtiAsset 1</title><g id="Layer_2" data-name="Layer 2"><g id="Layer_1-2" data-name="Layer 1"><g id="Group_8" data-name="Group 8"><path id="blob" class="cls-1" d="M232.37,686c-70.24-2.67-136.11-85.06-176.25-166S2.28,359.68.25,266.46,7.47,66.46,65,23.75c57.11-42.41,162.4-20,254.27,5.47,92.28,25.22,171.45,54,219.61,111.2,47.76,57.5,65.31,142.82,45.29,213.5-19.62,70.38-76.1,126.2-141.93,192.24C377.09,612.29,302.6,688.64,232.37,686Z"/><g id="Mail_sent-amico" data-name="Mail sent-amico"><g id="freepik--Shadow--inject-387"><path id="Path_72" data-name="Path 72" class="cls-2" d="M332.15,430.92c-19.71,11.37-19.71,29.82,0,41.2s51.65,11.38,71.36,0,19.7-29.83,0-41.2S351.85,419.54,332.15,430.92Z"/></g><g id="freepik--paper-planes--inject-387"><path id="Path_73" data-name="Path 73" class="cls-3" d="M124.63,267.82l52.8-16.42-40.62,28.14Z"/><path id="Path_74" data-name="Path 74" class="cls-3" d="M177.43,251.4l-56.87,9.38-12.18-11.73Z"/><path id="Path_75" data-name="Path 75" class="cls-4" d="M120.56,260.78v14.07l4.07-7,52.8-16.42Z"/><path id="Path_76" data-name="Path 76" class="cls-3" d="M120.56,274.85l8.13-3.12-4.06-3.91Z"/><path id="Path_77" data-name="Path 77" class="cls-4" d="M124.63,267.82l4.06,3.91-1.3.49Z"/><path id="Path_78" data-name="Path 78" class="cls-5" d="M111.81,272.73A.75.75,0,0,1,111,272a.78.78,0,0,1,.4-.68c.9-.5,1.81-1,2.71-1.39a.75.75,0,0,1,1,.31.73.73,0,0,1-.3,1l-.06,0c-.87.42-1.76.87-2.63,1.36A.77.77,0,0,1,111.81,272.73Z"/><path id="Path_79" data-name="Path 79" class="cls-5" d="M102.58,353.49a.71.71,0,0,1-.43-.13,39.77,39.77,0,0,1-4.61-3.78.75.75,0,1,1,1-1.09,38.81,38.81,0,0,0,4.45,3.64.76.76,0,0,1,.17,1.05.74.74,0,0,1-.61.31Zm-7.84-7.28a.69.69,0,0,1-.58-.27,39.5,39.5,0,0,1-3.43-4.87.74.74,0,0,1,.28-1,.76.76,0,0,1,1,.24,38.5,38.5,0,0,0,3.3,4.7.75.75,0,0,1-.1,1.05A.68.68,0,0,1,94.74,346.21Zm-5.63-9.1a.73.73,0,0,1-.69-.44,46.13,46.13,0,0,1-2.1-5.57.75.75,0,0,1,.56-.9.77.77,0,0,1,.87.46,44.66,44.66,0,0,0,2,5.39.76.76,0,0,1-.37,1h0a.66.66,0,0,1-.27.06ZM85.86,326.9a.74.74,0,0,1-.73-.61,52.61,52.61,0,0,1-.81-5.88.75.75,0,0,1,.69-.81.76.76,0,0,1,.81.69A47.5,47.5,0,0,0,86.6,326a.74.74,0,0,1-.57.88h0Zm-1-10.68h0a.74.74,0,0,1-.74-.74v0a51,51,0,0,1,.4-5.92.75.75,0,0,1,.76-.74.76.76,0,0,1,.74.76.88.88,0,0,1,0,.16,53,53,0,0,0-.38,5.76.75.75,0,0,1-.76.74Zm1.22-10.65H86a.75.75,0,0,1-.57-.89A47.82,47.82,0,0,1,87.07,299a.74.74,0,0,1,1-.46h0a.77.77,0,0,1,.46,1v0A44.68,44.68,0,0,0,86.9,305,.74.74,0,0,1,86.13,305.57Zm3.56-10.1a.54.54,0,0,1-.33-.08.74.74,0,0,1-.36-1v0A47.1,47.1,0,0,1,92,289.22a.73.73,0,0,1,1.22.79,45,45,0,0,0-2.85,5A.74.74,0,0,1,89.69,295.47Zm5.75-9a.65.65,0,0,1-.46-.16.75.75,0,0,1-.13-1.05h0a53.76,53.76,0,0,1,4-4.41.76.76,0,0,1,1.06,0,.74.74,0,0,1,0,1,54,54,0,0,0-3.86,4.29.71.71,0,0,1-.62.24Zm7.52-7.68a.75.75,0,0,1-.48-1.33c1.52-1.26,3.11-2.45,4.75-3.56a.74.74,0,0,1,.8,1.25c-1.6,1.08-3.15,2.24-4.63,3.47A.8.8,0,0,1,103,278.79Z"/><path id="Path_80" data-name="Path 80" class="cls-5" d="M109.46,357.4a.64.64,0,0,1-.31-.07c-.93-.42-1.85-.87-2.73-1.35a.74.74,0,0,1-.31-1h0a.76.76,0,0,1,1-.31c.86.46,1.75.9,2.65,1.31a.75.75,0,0,1,.36,1,.74.74,0,0,1-.67.43Z"/><path id="Path_81" data-name="Path 81" class="cls-3" d="M451.51,321.11,493.81,294l18.63,6Z"/><path id="Path_82" data-name="Path 82" class="cls-3" d="M451.51,321.11l36.56-30.48-8.13-9.38Z"/><path id="Path_83" data-name="Path 83" class="cls-4" d="M488.07,290.63v7.07l-36.56,23.41Z"/><path id="Path_84" data-name="Path 84" class="cls-5" d="M496.32,287.68a.69.69,0,0,1-.49-.19.76.76,0,0,1-.07-1.06,29.51,29.51,0,0,0,3.45-4.71.75.75,0,0,1,1.31.74v0a32.55,32.55,0,0,1-3.62,4.95A.72.72,0,0,1,496.32,287.68Zm5.72-9.32a.62.62,0,0,1-.27,0,.75.75,0,0,1-.44-1l0,0a31.15,31.15,0,0,0,1.58-5.63.74.74,0,0,1,.87-.6.75.75,0,0,1,.61.87h0a32.54,32.54,0,0,1-1.67,5.9.73.73,0,0,1-.7.46Zm2.14-10.73h0a.73.73,0,0,1-.73-.75h0v-.78a34.53,34.53,0,0,0-.4-5.07.76.76,0,0,1,.63-.86.78.78,0,0,1,.86.63,34.94,34.94,0,0,1,.41,5.3v.81A.76.76,0,0,1,504.18,267.63Zm-1.51-10.84a.74.74,0,0,1-.71-.54,38.8,38.8,0,0,0-2.15-5.47.74.74,0,0,1,.33-1h0a.75.75,0,0,1,1,.35,39,39,0,0,1,2.23,5.69.75.75,0,0,1-.49.93h0A.57.57,0,0,1,502.67,256.79ZM498,246.86a.7.7,0,0,1-.63-.35,44.81,44.81,0,0,0-3.53-4.71.74.74,0,0,1,.08-1.05h0a.74.74,0,0,1,1,.08h0a46.68,46.68,0,0,1,3.66,4.88.78.78,0,0,1-.22,1,.76.76,0,0,1-.41.15Zm-7-8.41a.69.69,0,0,1-.51-.21,56.91,56.91,0,0,0-4.53-3.8.76.76,0,0,1-.16-1.05.75.75,0,0,1,1.05-.15h0a56.05,56.05,0,0,1,4.66,3.91.76.76,0,0,1,0,1.06A.72.72,0,0,1,491,238.45Zm-8.77-6.66a.72.72,0,0,1-.4-.12c-.68-.42-1.39-.84-2.11-1.25-1-.56-2-1.12-3.06-1.65a.74.74,0,0,1-.42-1,.75.75,0,0,1,1-.42l.12.06c1.05.54,2.1,1.1,3.12,1.68.74.41,1.46.84,2.16,1.28a.76.76,0,0,1-.39,1.39Zm-89.65-.51a.74.74,0,0,1-.38-1.38c1.74-1,3.53-2,5.34-2.84a.74.74,0,1,1,.65,1.34c-1.78.87-3.54,1.8-5.25,2.79a.65.65,0,0,1-.36.07Zm79.9-4.57a.6.6,0,0,1-.3-.07c-1.8-.79-3.66-1.53-5.52-2.19a.75.75,0,0,1-.46-1,.77.77,0,0,1,1-.46h0c1.89.68,3.78,1.43,5.62,2.24a.75.75,0,0,1,.39,1,.74.74,0,0,1-.7.45Zm-70.05-.31a.73.73,0,0,1-.69-.46.75.75,0,0,1,.38-1h0c1.85-.78,3.75-1.5,5.65-2.15a.75.75,0,0,1,1,.41.08.08,0,0,0,0,.05.78.78,0,0,1-.45,1h0c-1.87.64-3.75,1.35-5.56,2.11a.74.74,0,0,1-.33,0Zm59.73-3.46H462c-1.89-.55-3.83-1-5.76-1.47a.75.75,0,1,1,.32-1.47c2,.43,3.94.94,5.86,1.5a.75.75,0,0,1-.21,1.47Zm-49.35-.15a.74.74,0,0,1-.72-.55.73.73,0,0,1,.5-.91h0c1.93-.54,3.91-1,5.88-1.44a.76.76,0,0,1,.94.49.74.74,0,0,1-.49.94.32.32,0,0,1-.14,0c-1.94.41-3.88.89-5.78,1.42Zm38.63-2.26h-.15c-1.95-.31-3.94-.56-5.9-.74a.73.73,0,0,1-.74-.75.75.75,0,0,1,.75-.75h.12q3,.27,6,.75a.77.77,0,0,1,.62.86.74.74,0,0,1-.7.59Zm-27.89-.07a.74.74,0,0,1-.74-.63.76.76,0,0,1,.63-.86c2-.3,4-.55,6-.72a.75.75,0,1,1,.16,1.5h0c-2,.17-4,.4-5.9.71Zm16.95-1h0c-2-.07-4-.08-5.95,0a.72.72,0,0,1-.77-.69v0a.74.74,0,0,1,.71-.77h0c2-.07,4-.06,6,0a.76.76,0,0,1,.73.77h0a.76.76,0,0,1-.74.7Z"/></g><g id="freepik--Mailbox--inject-387"><path id="Path_85" data-name="Path 85" class="cls-6" d="M436.76,335.73v-1.6h-.39a6.4,6.4,0,0,0-2.59-2.54,15.93,15.93,0,0,0-14.42,0,6.28,6.28,0,0,0-2.59,2.54h-.39v1.55c0,1.53,1,3.07,3,4.24a16,16,0,0,0,14.42,0C435.78,338.79,436.77,337.25,436.76,335.73Z"/><ellipse id="Ellipse_2" data-name="Ellipse 2" class="cls-4" cx="426.57" cy="334.13" rx="10.19" ry="5.89"/><path id="Path_86" data-name="Path 86" class="cls-6" d="M424,285.09v48.35a1.29,1.29,0,0,0,.76,1.07,4.11,4.11,0,0,0,3.71,0,1.32,1.32,0,0,0,.77-1.07V285.09Z"/><path id="Path_87" data-name="Path 87" class="cls-4" d="M438.32,248.9c-2.55-1.47-4.87-1.59-6.61-.62h0L399.32,267l16.25,32.59,32.5-18.8V266.53C448.07,259.9,443.7,252,438.32,248.9Z"/><path id="Path_88" data-name="Path 88" class="cls-6" d="M415.57,285.32v14.27l-19.49-11.26V274.07c0-6.63,4.36-9.48,9.74-6.37,3.45,2,6.48,5.94,8.21,10.26A20.28,20.28,0,0,1,415.57,285.32Z"/><path id="Path_89" data-name="Path 89" class="cls-7" d="M415.57,285.32v14.27l-19.49-11.26L414,278A20.28,20.28,0,0,1,415.57,285.32Z"/><path id="Path_90" data-name="Path 90" class="cls-4" d="M412.32,290.21c-1.79-5.18-7.61-11.9-13-15s-8.29-1.43-6.5,3.75l3.25,9.38,19.5,11.26S414.12,295.39,412.32,290.21Z"/><path id="Path_91" data-name="Path 91" class="cls-7" d="M425.73,285.86l-1.09-.63h0a1.47,1.47,0,0,0-1.46.14,4.61,4.61,0,0,0-2.07,3.59,1.44,1.44,0,0,0,.61,1.34h0l1,.58.19-.31a1.86,1.86,0,0,0,.59-.23,4.56,4.56,0,0,0,2.07-3.58,2.41,2.41,0,0,0-.07-.53Z"/><path id="Path_92" data-name="Path 92" class="cls-6" d="M424.22,286a4.59,4.59,0,0,0-2.07,3.58c0,1.32.93,1.85,2.07,1.19a4.56,4.56,0,0,0,2.07-3.58C426.32,285.85,425.32,285.32,424.22,286Z"/><path id="Path_93" data-name="Path 93" class="cls-7" d="M424.22,288.93a.6.6,0,0,1-.6-.6h0V267.7a.6.6,0,1,1,1.2,0h0v20.63a.6.6,0,0,1-.6.6Z"/><path id="Path_94" data-name="Path 94" class="cls-6" d="M424.76,268.24v5.38l5.77-5.92Z"/></g><g id="freepik--Plants--inject-387"><path id="Path_95" data-name="Path 95" class="cls-3" d="M121.4,446.7c-.5.27-9.68,2.87-13.08-1.62s2.25-11.49-.94-14.07-12.13,0-14.28-5.42,4.22-7.76.64-13.23c-2.26-3.45-8.58-5.35-8.29-8.56.42-4.69,9.06-6,16.6-.93s11.06.91,13.45.57,7.55.41,7.39,8.81S121.4,446.7,121.4,446.7Z"/><path id="Path_96" data-name="Path 96" class="cls-8" d="M122,434.79a.5.5,0,0,1-.5-.42c-2.63-16-21.16-28.93-30.8-31.71a.49.49,0,0,1-.35-.6v0a.5.5,0,0,1,.62-.34c9.85,2.85,28.81,16.14,31.51,32.51a.5.5,0,0,1-.41.57Z"/><path id="Path_97" data-name="Path 97" class="cls-8" d="M100.15,421.4a.5.5,0,0,1-.26-.93c.3-.18,7.44-4.35,14.46-2.4a.52.52,0,0,1,.34.65.5.5,0,0,1-.6.35c-6.62-1.84-13.62,2.25-13.69,2.29a.44.44,0,0,1-.25,0Z"/><path id="Path_98" data-name="Path 98" class="cls-3" d="M382.82,362.21c3.94.54,10.65-1.74,11.13-8.3s3.19-8.34,8.16-9.41,6.43-2.8,7-5.92S405.9,331.73,407,327s4.6-4.69,8.08-10c2.23-3.42-2.34-8.64-10-6.4s-7,7.15-14.61,7.78-12.38,5.25-12.53,11S382.82,362.21,382.82,362.21Z"/><path id="Path_99" data-name="Path 99" class="cls-9" d="M382.82,362.21c3.94.54,10.65-1.74,11.13-8.3s3.19-8.34,8.16-9.41,6.43-2.8,7-5.92S405.9,331.73,407,327s4.6-4.69,8.08-10c2.23-3.42-2.34-8.64-10-6.4s-7,7.15-14.61,7.78-12.38,5.25-12.53,11S382.82,362.21,382.82,362.21Z"/><path id="Path_100" data-name="Path 100" class="cls-8" d="M381.38,349.63h-.06a.49.49,0,0,1-.39-.59h0c3.68-18.19,23.75-34.84,28.64-36.54a.53.53,0,0,1,.37,1h0c-4.78,1.66-24.39,18-28,35.79A.51.51,0,0,1,381.38,349.63Z"/></g><g id="freepik--Envelopes--inject-387"><path id="Path_101" data-name="Path 101" class="cls-3" d="M117.2,343.18a5.73,5.73,0,0,1,2.6-4.5l132.91-76.74a5.78,5.78,0,0,1,5.19,0l2.93,1.7a5.73,5.73,0,0,1,2.6,4.5V370a5.78,5.78,0,0,1-2.6,4.5L127.92,451.25a5.74,5.74,0,0,1-5.2,0l-2.92-1.69a5.76,5.76,0,0,1-2.6-4.5Z"/><path id="Path_102" data-name="Path 102" class="cls-10" d="M117.2,343.18a5.73,5.73,0,0,1,2.6-4.5l132.91-76.74a5.78,5.78,0,0,1,5.19,0l2.93,1.7a5.73,5.73,0,0,1,2.6,4.5V370a5.78,5.78,0,0,1-2.6,4.5L127.92,451.25a5.74,5.74,0,0,1-5.2,0l-2.92-1.69a5.76,5.76,0,0,1-2.6-4.5Z"/><path id="Path_103" data-name="Path 103" class="cls-3" d="M129.38,347.22,118,340.62a5.3,5.3,0,0,0-.76,2.56V445.06a5.76,5.76,0,0,0,2.6,4.5l2.92,1.69a5.74,5.74,0,0,0,5.2,0l1.46-.84Z"/><path id="Path_104" data-name="Path 104" class="cls-11" d="M129.38,347.22,118,340.62a5.3,5.3,0,0,0-.76,2.56V445.06a5.76,5.76,0,0,0,2.6,4.5l2.92,1.69a5.74,5.74,0,0,0,5.2,0l1.46-.84Z"/><path id="Path_105" data-name="Path 105" class="cls-3" d="M263.43,268.14V370a5.41,5.41,0,0,1-.81,2.63,5.51,5.51,0,0,1-1.52,1.7l-.1.06-.17.11L127.92,451.25h0a1.84,1.84,0,0,1-1.77.2,1.76,1.76,0,0,1-.83-1.66V347.87a2.26,2.26,0,0,1,2.11-2.39,2.2,2.2,0,0,1,.81.09l55.89,13.29,7.32,1.74a4.81,4.81,0,0,0,4.67-1.75L204.6,347l57.08-79.47C262.64,266.23,263.43,266.48,263.43,268.14Z"/><path id="Path_106" data-name="Path 106" class="cls-9" d="M263.43,268.14V370a5.41,5.41,0,0,1-.81,2.63,5.51,5.51,0,0,1-1.52,1.7l-.1.06-.17.11L127.92,451.25h0a1.84,1.84,0,0,1-1.77.2,1.76,1.76,0,0,1-.83-1.66V347.87a2.26,2.26,0,0,1,2.11-2.39,2.2,2.2,0,0,1,.81.09l55.89,13.29,7.32,1.74a4.81,4.81,0,0,0,4.67-1.75L204.6,347l57.08-79.47C262.64,266.23,263.43,266.48,263.43,268.14Z"/><path id="Path_107" data-name="Path 107" class="cls-3" d="M260.83,374.52l.17-.11.1-.06a5.51,5.51,0,0,0,1.52-1.7,5.26,5.26,0,0,0,.81-2.59l-58.83-23,39.4,37.2Z"/><path id="Path_108" data-name="Path 108" class="cls-12" d="M260.83,374.52l.17-.11.1-.06a5.51,5.51,0,0,0,1.52-1.7,5.26,5.26,0,0,0,.81-2.59l-58.83-23,39.4,37.2Z"/><path id="Path_109" data-name="Path 109" class="cls-3" d="M125.32,449.79a1.77,1.77,0,0,0,.81,1.71,1.84,1.84,0,0,0,1.77-.2h0l45.78-26.51,10.45-66-58.81,89.27Z"/><path id="Path_110" data-name="Path 110" class="cls-12" d="M125.32,449.79a1.77,1.77,0,0,0,.81,1.71,1.84,1.84,0,0,0,1.77-.2h0l45.78-26.51,10.45-66-58.81,89.27Z"/><path id="Path_111" data-name="Path 111" class="cls-3" d="M262.62,372.65a5.51,5.51,0,0,1-1.52,1.7l-.1.06L127.92,451.25h0a1.84,1.84,0,0,1-1.77.2L189.8,349.84A10,10,0,0,1,202.32,346Z"/><path id="Path_112" data-name="Path 112" class="cls-9" d="M262.62,372.65a5.51,5.51,0,0,1-1.52,1.7l-.1.06L127.92,451.25h0a1.84,1.84,0,0,1-1.77.2L189.8,349.84A10,10,0,0,1,202.32,346Z"/><path id="Path_113" data-name="Path 113" class="cls-3" d="M125.32,344.87l61.13,27A10,10,0,0,0,199,368l64.19-102.73Z"/><path id="Path_114" data-name="Path 114" class="cls-12" d="M125.32,344.87l61.13,27A10,10,0,0,0,199,368l64.19-102.73Z"/><path id="Path_115" data-name="Path 115" class="cls-3" d="M125.32,344.87l61.56,23a10,10,0,0,0,11.87-3.9l64.41-98.68Z"/><path id="Path_116" data-name="Path 116" class="cls-9" d="M125.32,344.87l61.56,23a10,10,0,0,0,11.87-3.9l64.41-98.68Z"/><path id="Path_117" data-name="Path 117" class="cls-4" d="M139.9,355.73a5.7,5.7,0,0,1,2.6-4.5l132.91-76.74a5.74,5.74,0,0,1,5.2,0l2.93,1.69a5.76,5.76,0,0,1,2.59,4.5V382.56a5.74,5.74,0,0,1-2.59,4.5L150.62,463.79a5.78,5.78,0,0,1-5.19,0l-2.93-1.69a5.76,5.76,0,0,1-2.6-4.5Z"/><path id="Path_118" data-name="Path 118" class="cls-4" d="M139.9,355.73a5.7,5.7,0,0,1,2.6-4.5l132.91-76.74a5.74,5.74,0,0,1,5.2,0l2.93,1.69a5.76,5.76,0,0,1,2.59,4.5V382.56a5.74,5.74,0,0,1-2.59,4.5L150.62,463.79a5.78,5.78,0,0,1-5.19,0l-2.93-1.69a5.76,5.76,0,0,1-2.6-4.5Z"/><path id="Path_119" data-name="Path 119" class="cls-7" d="M152.09,359.79l-11.43-6.59a5.3,5.3,0,0,0-.76,2.56V457.61a5.76,5.76,0,0,0,2.6,4.5l2.93,1.69a5.78,5.78,0,0,0,5.19,0l1.47-.85Z"/><path id="Path_120" data-name="Path 120" class="cls-6" d="M286.14,280.68V382.56a5.41,5.41,0,0,1-.81,2.63,5.51,5.51,0,0,1-1.52,1.7l-.1.06-.17.11L150.63,463.79h0a1.84,1.84,0,0,1-1.77.2,1.77,1.77,0,0,1-.81-1.71V360.41a2.26,2.26,0,0,1,2.11-2.39,2.2,2.2,0,0,1,.81.09l55.89,13.29,7.32,1.74a4.81,4.81,0,0,0,4.67-1.75l8.47-11.81,57.08-79.47C285.32,278.79,286.14,279,286.14,280.68Z"/><path id="Path_121" data-name="Path 121" class="cls-7" d="M283.54,387.06l.17-.11.1-.06a5.51,5.51,0,0,0,1.52-1.7,5.32,5.32,0,0,0,.8-2.58l-58.82-23,39.39,37.18Z"/><path id="Path_122" data-name="Path 122" class="cls-7" d="M148,462.29a1.77,1.77,0,0,0,.81,1.71,1.84,1.84,0,0,0,1.77-.2h0l45.76-26.42,10.45-66L148,460.58Z"/><path id="Path_123" data-name="Path 123" class="cls-6" d="M285.32,385.19a5.51,5.51,0,0,1-1.52,1.7l-.1.06L150.63,463.79h0a1.84,1.84,0,0,1-1.77.2l63.64-101.6A10,10,0,0,1,225,358.55Z"/><path id="Path_124" data-name="Path 124" class="cls-7" d="M148,357.42l61.13,27a10,10,0,0,0,12.51-3.85l64.19-102.78Z"/><path id="Path_125" data-name="Path 125" class="cls-6" d="M148,357.42l61.55,23a10,10,0,0,0,11.88-3.9l64.4-98.73Z"/><path id="Path_126" data-name="Path 126" class="cls-3" d="M237.39,436.6V334.72a10.88,10.88,0,0,1,1.75-5.43L302.53,241a10,10,0,0,1,10.44-3.9l59.61,14.17a25,25,0,0,1,5.52,2.2l2.93,1.69a5.78,5.78,0,0,1,2.59,4.5V361.56a5.8,5.8,0,0,1-2.59,4.5L248.11,442.79a5.72,5.72,0,0,1-5.19,0L240,441.1a5.76,5.76,0,0,1-2.6-4.5Z"/><path id="Path_127" data-name="Path 127" class="cls-13" d="M237.39,436.6V334.72a10.88,10.88,0,0,1,1.75-5.43L302.53,241a10,10,0,0,1,10.44-3.9l59.61,14.17a25,25,0,0,1,5.52,2.2l2.93,1.69a5.78,5.78,0,0,1,2.59,4.5V361.56a5.8,5.8,0,0,1-2.59,4.5L248.11,442.79a5.72,5.72,0,0,1-5.19,0L240,441.1a5.76,5.76,0,0,1-2.6-4.5Z"/><path id="Path_128" data-name="Path 128" class="cls-14" d="M249.57,285.48v130c0,1.65,1.17,2.33,2.6,1.5L377,345a5.74,5.74,0,0,0,2.6-4.5v-130c0-1.66-1.16-2.33-2.6-1.5L252.17,281A5.73,5.73,0,0,0,249.57,285.48Z"/><path id="Path_129" data-name="Path 129" class="cls-5" d="M251,417.85a1.76,1.76,0,0,1-.92-.24,2.26,2.26,0,0,1-1-2.11v-130a6.22,6.22,0,0,1,2.85-4.94l124.79-72a2.07,2.07,0,0,1,2.91.3,2.11,2.11,0,0,1,.44,1.64v130a6.21,6.21,0,0,1-2.85,4.93l-124.79,72a2.8,2.8,0,0,1-1.43.42ZM378.12,209.07a1.92,1.92,0,0,0-.91.29L252.42,281.41a5.27,5.27,0,0,0-2.35,4.07v130a1.11,1.11,0,0,0,1.85,1.07l124.79-72a5.26,5.26,0,0,0,2.35-4.07v-130a1.43,1.43,0,0,0-.51-1.25A1,1,0,0,0,378.12,209.07Z"/><path id="Path_130" data-name="Path 130" class="cls-3" d="M246.88,337.2l-9-5.2a9.37,9.37,0,0,0-.48,2.72V436.6a5.76,5.76,0,0,0,2.6,4.5l2.92,1.69a5.72,5.72,0,0,0,5.19,0l1.25-.71Z"/><g id="Group_3" data-name="Group 3" class="cls-15"><path id="Path_131" data-name="Path 131" d="M246.88,337.2l-9-5.2a9.37,9.37,0,0,0-.48,2.72V436.6a5.76,5.76,0,0,0,2.6,4.5l2.92,1.69a5.72,5.72,0,0,0,5.19,0l1.25-.71Z"/></g><path id="Path_132" data-name="Path 132" class="cls-3" d="M383.63,259.68V361.56a5.41,5.41,0,0,1-.81,2.63,5.51,5.51,0,0,1-1.52,1.7l-.1.06-.17.11L248.12,442.79h0a1.84,1.84,0,0,1-1.77.2,1.77,1.77,0,0,1-.81-1.71V339.41a2.26,2.26,0,0,1,2.11-2.39,2.2,2.2,0,0,1,.81.09l55.86,13.29,7.32,1.74a4.81,4.81,0,0,0,4.68-1.75l8.48-11.81,57.08-79.47C382.84,257.79,383.63,258,383.63,259.68Z"/><path id="Path_133" data-name="Path 133" class="cls-13" d="M383.63,259.68V361.56a5.41,5.41,0,0,1-.81,2.63,5.51,5.51,0,0,1-1.52,1.7l-.1.06-.17.11L248.12,442.79h0a1.84,1.84,0,0,1-1.77.2,1.77,1.77,0,0,1-.81-1.71V339.41a2.26,2.26,0,0,1,2.11-2.39,2.2,2.2,0,0,1,.81.09l55.86,13.29,7.32,1.74a4.81,4.81,0,0,0,4.68-1.75l8.48-11.81,57.08-79.47C382.84,257.79,383.63,258,383.63,259.68Z"/><path id="Path_134" data-name="Path 134" class="cls-3" d="M381,366.06l.17-.11.1-.06a5.51,5.51,0,0,0,1.52-1.7,5.39,5.39,0,0,0,.8-2.59l-58.82-23,39.39,37.19Z"/><path id="Path_135" data-name="Path 135" class="cls-3" d="M245.52,441.29a1.77,1.77,0,0,0,.81,1.71,1.84,1.84,0,0,0,1.77-.2h0l45.76-26.42,10.45-66-58.81,89.2Z"/><path id="Path_136" data-name="Path 136" class="cls-3" d="M382.82,364.19a5.51,5.51,0,0,1-1.52,1.7l-.1.06L248.12,442.79h0a1.84,1.84,0,0,1-1.77.2L310,341.39a10,10,0,0,1,12.51-3.84Z"/><path id="Path_137" data-name="Path 137" class="cls-13" d="M382.82,364.19a5.51,5.51,0,0,1-1.52,1.7l-.1.06L248.12,442.79h0a1.84,1.84,0,0,1-1.77.2L310,341.39a10,10,0,0,1,12.51-3.84Z"/><path id="Path_138" data-name="Path 138" class="cls-5" d="M304.52,315.42a7.25,7.25,0,0,1-6.41-2.2c-1.52-1.69-2.28-4.3-2.28-7.81a27.74,27.74,0,0,1,2.49-11.48,34.65,34.65,0,0,1,6.86-10,47.71,47.71,0,0,1,10.4-8.14q5.63-3.24,9.61-3.59c2.67-.24,4.68.45,6.06,2.05s2.06,4.05,2.06,7.33a19.2,19.2,0,0,1-2.24,9.34,15.58,15.58,0,0,1-5.92,6.26,4.34,4.34,0,0,1-3,.78,2,2,0,0,1-1.56-1.51,18.43,18.43,0,0,1-3.14,4.29,19.4,19.4,0,0,1-4.28,3.33c-2.72,1.54-4.89,2-6.49,1.47s-2.36-2.15-2.36-4.85a16.87,16.87,0,0,1,3-9.49,24.08,24.08,0,0,1,8.16-7.48,15.36,15.36,0,0,1,4.39-1.76,6.74,6.74,0,0,1,3.51,0v10.53c0,.85.15,1.37.44,1.57s.77.1,1.45-.29a6.48,6.48,0,0,0,2.65-3.51,17.38,17.38,0,0,0,.95-6.07c0-2.62-.58-4.53-1.72-5.73a5.39,5.39,0,0,0-4.71-1.44,18.22,18.22,0,0,0-6.87,2.56,33.73,33.73,0,0,0-11.15,10,22.86,22.86,0,0,0-4.1,13.21c0,2.88.59,5,1.77,6.29a5.41,5.41,0,0,0,4.88,1.68,17.79,17.79,0,0,0,7-2.57,29,29,0,0,0,4.15-2.92,22,22,0,0,0,3.27-3.34,1.88,1.88,0,0,1,.35-.34c.09,0,.18,0,.26.12l1.1,2a1.25,1.25,0,0,1,.09.25,1,1,0,0,1-.31.58,30.24,30.24,0,0,1-4,4A34.45,34.45,0,0,1,314,312a23.58,23.58,0,0,1-9.47,3.44Zm13-18.8a6.75,6.75,0,0,0,1.58-4v-6.1a8.67,8.67,0,0,0-4,1.38,13.91,13.91,0,0,0-4.74,4.41,10.17,10.17,0,0,0-1.75,5.67c0,1.69.42,2.7,1.27,3s2.16,0,3.95-1.07a12.63,12.63,0,0,0,3.73-3.29Z"/></g><g id="freepik--Notifications--inject-387"><path id="Path_139" data-name="Path 139" class="cls-16" d="M177.16,325.44l-9.75-5.65h-.07c-3.33-1.88-7.92-1.6-13,1.33-10.21,5.89-18.48,20.22-18.48,32,0,5.89,2.06,10,5.39,12h0l9.07,5.19,1.64-2.73a18.83,18.83,0,0,0,5.3-2.06c10.2-5.9,18.48-20.23,18.48-32a20.33,20.33,0,0,0-.58-4.72Z"/><path id="Path_140" data-name="Path 140" class="cls-3" d="M177.16,325.44l-9.75-5.65h-.07c-3.33-1.88-7.92-1.6-13,1.33-10.21,5.89-18.48,20.22-18.48,32,0,5.89,2.06,10,5.39,12h0l9.07,5.19,1.64-2.73a18.83,18.83,0,0,0,5.3-2.06c10.2-5.9,18.48-20.23,18.48-32a20.33,20.33,0,0,0-.58-4.72Z"/><path id="Path_141" data-name="Path 141" class="cls-17" d="M177.16,325.44l-9.75-5.65h-.07c-3.33-1.88-7.92-1.6-13,1.33-10.21,5.89-18.48,20.22-18.48,32,0,5.89,2.06,10,5.39,12h0l9.07,5.19,1.64-2.73a18.83,18.83,0,0,0,5.3-2.06c10.2-5.9,18.48-20.23,18.48-32a20.33,20.33,0,0,0-.58-4.72Z"/><path id="Path_142" data-name="Path 142" class="cls-3" d="M163.71,326.49c-10.21,5.9-18.48,20.23-18.48,32s8.27,16.56,18.48,10.67,18.48-20.22,18.48-32S173.92,320.6,163.71,326.49Z"/><path id="Path_143" data-name="Path 143" class="cls-8" d="M156.49,361.31a.25.25,0,0,1-.29-.23V361a1.52,1.52,0,0,1,.16-.54l.93-2.09a1.07,1.07,0,0,1,.35-.52,1.34,1.34,0,0,1,.44-.1,8.89,8.89,0,0,0,2.44-.49,15.35,15.35,0,0,0,3-1.38,12.13,12.13,0,0,0,3.8-3.22,5.94,5.94,0,0,0,1.23-3.49c0-2.21-1.35-2.53-4.05-1l-2.63,1.59c-.43.24-.73.33-.91.25s-.27-.32-.27-.72v-.83a1.7,1.7,0,0,1,.27-1,2.74,2.74,0,0,1,.91-.78l2.61-1.51a7.21,7.21,0,0,0,2.58-2.39,5.39,5.39,0,0,0,.86-2.81q0-3.21-4.52-.6a19.68,19.68,0,0,0-4.94,4,3.39,3.39,0,0,1-.44.41.28.28,0,0,1-.35-.08l-.89-1a.48.48,0,0,1-.16-.36,1,1,0,0,1,.28-.61,19.34,19.34,0,0,1,3-3,30.51,30.51,0,0,1,4.11-2.82,13,13,0,0,1,4.25-1.69,2.92,2.92,0,0,1,3.77,3.22,8.16,8.16,0,0,1-.72,3.19,11.21,11.21,0,0,1-2,3.16,2.72,2.72,0,0,1,2.56.47,3.58,3.58,0,0,1,.85,2.62,10.53,10.53,0,0,1-2.22,6.1,19.48,19.48,0,0,1-6.28,5.46Q158.94,361.56,156.49,361.31Z"/></g><g id="freepik--Character--inject-387"><path id="Path_144" data-name="Path 144" class="cls-18" d="M366.19,469.88h0l.19-.17c.14-.12.29-.24.42-.37l.45-.44.45-.43a9.27,9.27,0,0,0,.75-.78l3.56,2.66,2.37,1.77a11.44,11.44,0,0,0-2.08,3.17s-.71,1.15-3.12.57C366.2,475.17,365.73,470.79,366.19,469.88Z"/><path id="Path_145" data-name="Path 145" class="cls-3" d="M331.32,468.66c-2.72-3.16-.3-8.41,2.34-15.22,2.9-7.49,7.38-20.22,7.38-20.22l31.81-6.57s33.89-.65,37,5.83c2.52,5.19-19.8,13-23,13.28l-19.59,1-2.06,1L351.44,465.2Z"/><path id="Path_146" data-name="Path 146" class="cls-3" d="M389.93,437.79a81.85,81.85,0,0,0-6.89,8c-5.73,8-14.8,22.53-14.8,22.53s1.41,4.6,5.74,4.4c0,0,29.8-27.83,32.24-30.4,3.69-3.9,6.65-10.33.27-10.86S392.41,435.11,389.93,437.79Z"/><path id="Path_147" data-name="Path 147" class="cls-3" d="M382.88,446s5.32-7.78,10.83-11c0,0-5.48,1.08-13.78,11.18Z"/><path id="Path_148" data-name="Path 148" class="cls-19" d="M382.88,446s5.32-7.78,10.83-11c0,0-5.48,1.08-13.78,11.18Z"/><path id="Path_149" data-name="Path 149" class="cls-18" d="M386.5,455.79l-2.09.4,1.94,7.17s1.88-.18,2.53-.14a10.29,10.29,0,0,0,2.71-1.05l-.5-4.38-2.3-2.4Z"/><path id="Path_150" data-name="Path 150" class="cls-7" d="M403,457.48a7.87,7.87,0,0,1,4.38,4.46,23.27,23.27,0,0,1,1.09,3.24c.33,1.16.17,3.13-1.3,3.45a2.39,2.39,0,0,1-1.39-.25c-2.95-1.14-5.83-2.46-8.85-3.42a29.64,29.64,0,0,0-8.05-1.75,5.58,5.58,0,0,0-.24-6.41,4,4,0,0,0-2.14-1c.76-.34,1.47-.78,2.2-1.19a6.67,6.67,0,0,1,4.67-1.15c1.26.27,2.22,1.27,3.29,2C398.7,456.79,400.67,456.7,403,457.48Z"/><path id="Path_151" data-name="Path 151" class="cls-3" d="M335.61,461.79c2.63-.81,6.83-1.53,19.29-2.17s29.51-3.44,29.51-3.44c2.9,2.79,1.94,7.17,1.94,7.17s-22.13,7-29.34,7.93c-11.48,1.48-15.44,1.37-20.62.26C330.57,470.29,326.9,464.46,335.61,461.79Z"/><path id="Path_152" data-name="Path 152" class="cls-16" d="M381.15,402.44l9.36,22.37-6.7,4.12-12.88-21.81Z"/><path id="Path_153" data-name="Path 153" class="cls-5" d="M361.79,381.36c5.12.06,10.75,1.92,12.69,5.93l8,16.5s-4.52,6.62-11.7,6.15Z"/><path id="Path_154" data-name="Path 154" class="cls-18" d="M327.75,416.13c.06-.87,1.31-5.12,2.65-9.7l9.72,3.36L337.51,418l-8.19,7.77A12.84,12.84,0,0,1,327.75,416.13Z"/><path id="Path_155" data-name="Path 155" class="cls-14" d="M351.32,381.67c-6.1,1.47-14.41,3.38-16.82,10S328.64,410,328.64,410c1.34,2.32,8.69,4.24,11.24,2.9l1.2-4V433.2c4.77,5.19,28.3,3.86,31.81-6.57V393.5c0-5.3-2.94-11.67-11.07-12.14Z"/><path id="Path_156" data-name="Path 156" class="cls-5" d="M341.05,408.9l3.06-9.63-3.06,13.94Z"/><path id="Path_157" data-name="Path 157" class="cls-7" d="M349,354.56a3.65,3.65,0,0,0-3,1c-1.29,1.32-1,3.76,0,9.36l4,.45Z"/><path id="Path_158" data-name="Path 158" class="cls-7" d="M372.21,352.94a6.13,6.13,0,0,0,2.49-.51c1.22-.7,1.54.69.87,1.89A5.68,5.68,0,0,1,371,357.4c0-.17-1.14-3.11-1.14-3.11Z"/><path id="Path_159" data-name="Path 159" class="cls-18" d="M350.87,365.43c-.59.35-1.44-.78-2.17-1.55a2.56,2.56,0,0,0-3.61-.24,2.52,2.52,0,0,0-.68.94c-1.21,2.55,1.54,5.94,3.15,7.06a2.82,2.82,0,0,0,3.31.28l.42,9.75a10.37,10.37,0,0,0,7.84,5.95c5.72.77,4.54-3.95,2.66-6.26v-3.57a13.58,13.58,0,0,0,4.36.22c.74-.2,2.52-2.35,3.67-4.76,1.29-2.7,3.44-7.5,1.53-15.63-2.06-8.72-11.43-9-17-5.47S350.87,365.43,350.87,365.43Z"/><path id="Path_160" data-name="Path 160" class="cls-7" d="M350.87,366.42c-.3,0-1.43-1.87-2.17-2.54-1-.93.3-9.32.3-9.32s-1-3.19,1-5.3,5.92-1.76,8.78-1.86a25.75,25.75,0,0,0,10.2-2c4.06-1.76,4.36-2,4.86-.19s.7,5.86-1.72,8.59l-1.32,2.15s-1.23,1-5,1.5-10.23-1.57-11-1.68c-1.1-.15-1.33.91-1.92,3.81C352.32,362.08,351.87,366.4,350.87,366.42Z"/><path id="Path_161" data-name="Path 161" class="cls-7" d="M349,355.21l-3.58-1.92a2,2,0,0,1,2.68-.9h0A2.14,2.14,0,0,1,349,355.21Z"/><path id="Path_162" data-name="Path 162" class="cls-16" d="M361.78,377.79a43.09,43.09,0,0,1-7.15-2,6.09,6.09,0,0,1-2.56-2.54,8.38,8.38,0,0,0,1.46,3c1.35,1.73,8.25,3,8.25,3Z"/><path id="Path_163" data-name="Path 163" class="cls-7" d="M362,365.23a1.06,1.06,0,1,1-1.06-1.1,1.09,1.09,0,0,1,1.06,1.1Z"/><path id="Path_164" data-name="Path 164" class="cls-7" d="M360.83,361.23l-2.28,1.25a1.37,1.37,0,0,1,.53-1.81,1.27,1.27,0,0,1,1.72.51Z"/><path id="Path_165" data-name="Path 165" class="cls-16" d="M361.32,372.33l2.43.92a1.28,1.28,0,0,1-1.62.81h0A1.36,1.36,0,0,1,361.32,372.33Z"/><path id="Path_166" data-name="Path 166" class="cls-7" d="M371.42,362.11l-2.07-1.6a1.25,1.25,0,0,1,1.75-.3l0,0A1.38,1.38,0,0,1,371.42,362.11Z"/><path id="Path_167" data-name="Path 167" class="cls-7" d="M370.78,364.93a1.06,1.06,0,1,1-1.06-1.1,1.09,1.09,0,0,1,1.06,1.1Z"/><path id="Path_168" data-name="Path 168" class="cls-16" d="M365.78,364.8l-1,6.32,3.5-.41Z"/><path id="Path_169" data-name="Path 169" class="cls-6" d="M402.26,436.57l-21.55-12.44a1.25,1.25,0,0,0-1.24,0L341.68,446l22.16,12.84Z"/><path id="Path_170" data-name="Path 170" class="cls-7" d="M363.64,456.92,352,450.22l34-19.62,11.68,6.67Z"/><path id="Path_171" data-name="Path 171" class="cls-7" d="M357.93,438.28l.22.12,5.69,3.29L374,435.84l.21-.12-5.91-3.41Z"/><path id="Path_172" data-name="Path 172" class="cls-7" d="M358.15,438.4l5.69,3.29L374,435.84l-5.7-3.29Z"/><path id="Path_173" data-name="Path 173" class="cls-7" d="M341.68,446v.51a2.06,2.06,0,0,0,1,1.8l20.08,11.59a2,2,0,0,0,2.08,0l36.34-21a2.11,2.11,0,0,0,1-1.8v-.51l-38.34,22.25Z"/><path id="Path_174" data-name="Path 174" class="cls-7" d="M363.84,458.79v1.38a2,2,0,0,0,1-.28l36.34-21a2.11,2.11,0,0,0,1-1.8v-.51Z"/><path id="Path_175" data-name="Path 175" class="cls-7" d="M364.43,459.06a2.44,2.44,0,0,0,2.12-.17L402.73,438a2.43,2.43,0,0,0,1.19-1.72l4-23.61a2.8,2.8,0,0,0,0-.41,2.52,2.52,0,0,0-.73-1.75l-37.6,21.71a1.81,1.81,0,0,0-.88,1.27Z"/><path id="Path_176" data-name="Path 176" class="cls-4" d="M363.84,458.79l.25.14a2.16,2.16,0,0,0,.34.17l4.28-25.57a1.81,1.81,0,0,1,.88-1.27l37.6-21.71a3.66,3.66,0,0,0-.5-.38L369,431.88a1.83,1.83,0,0,0-.89,1.27Z"/><path id="Path_177" data-name="Path 177" class="cls-6" d="M384.8,437.25a8,8,0,0,1,3.65-4.69c1.75-1,2.95-.55,2.69,1a8,8,0,0,1-3.65,4.69C385.74,439.3,384.54,438.79,384.8,437.25Z"/><path id="Path_178" data-name="Path 178" class="cls-18" d="M337.51,418s6.49,25,9.23,26.79,7.84,3.1,10.28,4,3.55,2.13,3.13,2.47-3.94.71-5.16,1.14.36,2.4,3.06,4.49,5,1.9,4.7,3.29-6.32,2.78-11.4-.2-6.62-7-9.65-10.41-9.95-17.58-12.38-23.78c0,0,.23-11.52,4-10.79S337.51,418,337.51,418Z"/><path id="Path_179" data-name="Path 179" class="cls-3" d="M368.39,468.66c.46,1.11,2.05,4.17,5.59,4l8.7-8.14Z"/><path id="Path_180" data-name="Path 180" class="cls-19" d="M368.39,468.66c.46,1.11,2.05,4.17,5.59,4l8.7-8.14Z"/><path id="Path_181" data-name="Path 181" class="cls-7" d="M373.64,473.63v0Z"/><path id="Path_182" data-name="Path 182" class="cls-7" d="M371,483a19.94,19.94,0,0,1,1.27-7.68h0a3.15,3.15,0,0,1-2.91.38c-2.91-.87-3.64-4.93-3.18-5.81h0c-.42.37-.86.72-1.29,1.08a6.65,6.65,0,0,0-2.75,3.95c-.2,1.27.39,2.52.68,3.78.56,2.4,0,4.9-.09,7.36a7.84,7.84,0,0,0,2.59,5.68,20.46,20.46,0,0,0,2.64,2.19,2.47,2.47,0,0,0,3.5.21,2.52,2.52,0,0,0,.83-2C371.93,489,371.2,486.23,371,483Z"/><path id="Path_183" data-name="Path 183" class="cls-6" d="M374.32,472.14c-.27.51-.51,1-.72,1.49C373.85,473.15,374.09,472.65,374.32,472.14Z"/><path id="Path_184" data-name="Path 184" class="cls-6" d="M366.18,469.87h0l.19-.17Z"/></g></g></g></g></g></svg>