<svg xmlns="http://www.w3.org/2000/svg" width="42.998" height="32.248" viewBox="0 0 42.998 32.248">
  <path id="envelope" d="M0,7.375A5.375,5.375,0,0,1,5.375,2H37.623A5.375,5.375,0,0,1,43,7.375v21.5a5.375,5.375,0,0,1-5.375,5.375H5.375A5.375,5.375,0,0,1,0,28.874ZM5.375,4.687A2.687,2.687,0,0,0,2.687,7.375v.583L21.5,19.245,40.31,7.958V7.375a2.687,2.687,0,0,0-2.687-2.687Zm34.936,6.4L27.524,18.764,40.31,26.493v-15.4Zm-.091,18.484-15.3-9.247L21.5,22.378l-3.418-2.05-15.3,9.245a2.687,2.687,0,0,0,2.6,1.989H37.623A2.687,2.687,0,0,0,40.219,29.575ZM2.687,26.493l12.786-7.729L2.687,11.091v15.4Z" transform="translate(0 -2)" fill="#b574ff"/>
</svg>
