<?xml version="1.0" encoding="utf-8"?>
<!-- Generator: Adobe Illustrator 24.0.1, SVG Export Plug-In . SVG Version: 6.00 Build 0)  -->
<svg version="1.1" id="Layer_1" xmlns="http://www.w3.org/2000/svg" xmlns:xlink="http://www.w3.org/1999/xlink" x="0px" y="0px"
	 viewBox="0 0 1440 320" style="enable-background:new 0 0 1440 320;" xml:space="preserve">
<style type="text/css">
	.st0{fill:#3BC7F3;}
</style>
<path class="st0" d="M1440,23.3V320h-44.1c-40,0-121.8,0-201.8,0s-155,0-235,0s-171.6,0-251.6,0S562,320,482,320s-162.1,0-242.1,0
	s-160.6,0-200.6,0H0V23.3c29.5-1,48.4,11.5,48.4,11.5C88.4,56.5,160,99.7,240,100c80-0.3,160-42.3,240-69.3S640-6.3,720,4
	c80,10.7,160,42.7,240,58.7s212-7.4,275.5-16"/>
</svg>
